<svg id="Слой_1" data-name="Слой 1" xmlns="http://www.w3.org/2000/svg" viewBox="0 0 113.39 113.39"><defs><style>.cls-1{fill:#4e90c2;}.cls-2,.cls-4{fill:#fff;}.cls-2,.cls-3,.cls-4{stroke:#fff;stroke-miterlimit:10;}.cls-3{fill:none;}.cls-4{stroke-width:0.25px;}</style></defs><title>pen</title><circle class="cls-1" cx="56.69" cy="56.69" r="56.69"/><polygon class="cls-2" points="37.57 64.72 55.9 35.47 75.82 48.05 57.4 77.97 37.57 64.72"/><path class="cls-3" d="M321,89.33" transform="translate(-276.85 -25.03)"/><path class="cls-1" d="M334.37,68.13l-13.16,21-.17.84V91.5l.38.46.62.29h1.08l.84-.71.71-1,12.5-19.91.25-.75v-.84l-.25-.58-.21-.37-.71-.38s-.75-.17-.88-.17a4.59,4.59,0,0,0-.79.46Z" transform="translate(-276.85 -25.03)"/><path class="cls-1" d="M341.94,72.5l-13.17,21-.17.83v1.59l.38.45.62.3h1.09l.83-.71.71-1L344.73,75l.25-.75v-.83l-.25-.58-.21-.38-.71-.37s-.75-.17-.87-.17a4.23,4.23,0,0,0-.79.46Z" transform="translate(-276.85 -25.03)"/><rect class="cls-2" x="336.85" y="52.51" width="21.71" height="12.76" rx="2.37" ry="2.37" transform="translate(-193.61 -199.43) rotate(31.8)"/><path class="cls-4" d="M311.56,101.85l.57-9.36,19.73,12.9L323.61,109a17.07,17.07,0,0,0-1.28-1.7,16.24,16.24,0,0,0-3.46-3,16,16,0,0,0-4.55-2A15.27,15.27,0,0,0,311.56,101.85Z" transform="translate(-276.85 -25.03)"/><path class="cls-3" d="M312.72,114.19" transform="translate(-276.85 -25.03)"/><path class="cls-4" d="M311.94,104.23a9.82,9.82,0,0,1,2.66.54,11.75,11.75,0,0,1,6.12,5.36L312,114Z" transform="translate(-276.85 -25.03)"/></svg>