<?xml version="1.0" encoding="utf-8"?>
<!-- Generator: Adobe Illustrator 22.0.1, SVG Export Plug-In . SVG Version: 6.00 Build 0)  -->
<svg version="1.1" id="Слой_1" xmlns="http://www.w3.org/2000/svg" xmlns:xlink="http://www.w3.org/1999/xlink" x="0px" y="0px"
	 viewBox="0 0 18.2 18.2" style="enable-background:new 0 0 18.2 18.2;" xml:space="preserve">
<style type="text/css">
	.st0{stroke:#000000;stroke-width:0.25;stroke-miterlimit:10;}
	.st1{fill:#F7F7F7;stroke:#000000;stroke-width:0.25;stroke-miterlimit:10;}
	.st2{fill:#F7F7F7;}
</style>
<path class="st0" d="M17.1,18.1h-16c-0.6,0-1-0.5-1-1v-16c0-0.6,0.5-1,1-1h16c0.6,0,1,0.5,1,1v16C18.1,17.6,17.6,18.1,17.1,18.1z"/>
<path class="st1" d="M6.3,4.1C6.1,3.9,5.8,3.9,5.6,4c0,0,0,0-0.1,0.1L4.8,4.9C4.4,5.2,4.2,5.8,4.5,6.2c0.6,1.9,1.7,3.5,3.1,5
	c1.4,1.4,3.1,2.5,5,3.2c0.5,0.2,1,0,1.4-0.3l0.8-0.8c0.2-0.2,0.2-0.5,0-0.8c0,0,0,0-0.1-0.1l-1.7-1.4C12.6,11,12.5,11,12.3,11
	l-1.6,0.4c-0.5,0.1-0.9,0-1.3-0.4L7.7,9.2C7.3,8.8,7.2,8.4,7.3,7.9l0.4-1.7c0.1-0.2,0-0.3-0.1-0.5L6.3,4.1z M5,3.5
	C5.5,3,6.3,3,6.9,3.5c0.1,0.1,0.1,0.1,0.1,0.2l1.4,1.7c0.2,0.3,0.3,0.8,0.2,1.1L8.1,8.2c-0.1,0.2,0,0.3,0.1,0.5l1.9,1.9
	c0.2,0.1,0.3,0.2,0.5,0.1l1.7-0.4c0.4-0.1,0.8,0,1.1,0.2l1.7,1.4c0.6,0.5,0.7,1.4,0.2,2l-0.8,0.8c-0.5,0.5-1.4,0.8-2.2,0.5
	c-2-0.7-3.8-1.8-5.3-3.3S4.4,8.4,3.7,6.4c-0.3-0.8,0-1.6,0.5-2.2L5,3.5L5,3.5z"/>
<polygon class="st2" points="3.9,5.4 6.4,4.3 8,7.8 5.5,8.9 "/>
<rect x="5" y="3.7" transform="matrix(0.7969 -0.6042 0.6042 0.7969 -2.0848 4.9275)" class="st2" width="2.6" height="3.7"/>
<rect x="4.8" y="4.2" transform="matrix(0.7735 -0.6338 0.6338 0.7735 -2.4823 5.2062)" class="st2" width="2.6" height="3.7"/>
<polygon class="st2" points="4.3,6.6 6.7,5.6 8.2,8.9 5.9,10 "/>
<rect x="7" y="8.7" transform="matrix(0.7071 -0.7071 0.7071 0.7071 -5.0445 8.8345)" class="st2" width="2.3" height="3.7"/>
<rect x="9.8" y="10.6" transform="matrix(0.5 -0.866 0.866 0.5 -5.4303 15.7072)" class="st2" width="2.3" height="3.9"/>
<rect x="11" y="10.7" transform="matrix(0.5783 -0.8158 0.8158 0.5783 -5.01 14.818)" class="st2" width="1.7" height="3.2"/>
<polygon class="st2" points="10.9,11.4 12.8,10.5 15,13.7 13,14.6 "/>
<path class="st2" d="M14.1,14.2l-1.8-1.3C12,12.7,12,12.3,12,12l0.3-0.7c0.2-0.3,0.5-0.4,0.7-0.3l1.8,1.3c0.2,0.2,0.3,0.6,0.2,0.8
	l-0.2,0.7C14.7,14.2,14.4,14.3,14.1,14.2z"/>
<path class="st2" d="M12.9,14.9l-2-1.1c-0.2-0.2-0.3-0.5-0.2-0.7l0.5-0.9c0.2-0.2,0.5-0.3,0.7-0.2l2,1.1c0.2,0.2,0.3,0.5,0.2,0.7
	l-0.5,0.9C13.5,14.9,13.2,15,12.9,14.9z"/>
</svg>
